<svg width="29" height="29" viewBox="0 0 29 29" fill="none" xmlns="http://www.w3.org/2000/svg">
<rect x="27" y="27" width="25" height="25" rx="4" transform="rotate(-180 27 27)" fill="#2884E0"/>
<path d="M21.5 11.5882V19.5707C21.5 20.3991 20.8284 21.0707 20 21.0707H10.2852C9.45673 21.0707 8.78516 20.3991 8.78516 19.5707V12.3023C8.78516 11.7916 9.04507 11.3159 9.47493 11.04L11.762 9.57203C12.1389 9.33013 12.6042 9.26928 13.0306 9.40613L17.2508 10.7605C17.9551 10.9865 18.7244 10.8724 19.3328 10.4518C20.2492 9.81829 21.5 10.4742 21.5 11.5882Z" fill="white" stroke="#2884E0"/>
<path d="M9.62288 12.6643L9.62288 9C9.62288 8.17157 10.2945 7.5 11.1229 7.5L18.8301 7.5C19.6585 7.5 20.3301 8.17157 20.3301 9L20.3301 12.2791C20.3301 12.8582 19.9967 13.3857 19.4735 13.6341L17.8363 14.4115C17.5278 14.558 17.1786 14.5948 16.8463 14.516L13.0457 13.6136C12.5188 13.4885 11.9646 13.5552 11.4824 13.8018C10.6322 14.2367 9.62288 13.6192 9.62288 12.6643Z" fill="#2884E0" stroke="white"/>
<path d="M8 15L10.3333 13.5C11.7547 12.5863 13.5786 12.5863 15 13.5V13.5C16.4214 14.4137 18.245 14.4139 19.6664 13.5002C20.4489 12.9971 21.2999 12.4501 22 12" stroke="#2884E0" stroke-linecap="round"/>
<path d="M8 14L10.3333 12.5C11.7547 11.5863 13.5786 11.5863 15 12.5V12.5C16.4214 13.4137 18.245 13.4139 19.6664 12.5002C20.4489 11.9971 21.2999 11.4501 22 11" stroke="white" stroke-linecap="round"/>
</svg>